# xmcd CD database file
#
# Track frame offsets:
#	150
#	3750
#	20785
#	39645
#	58705
#	76850
#	96750
#	113115
#	130775
#	150312
#	167587
#
# Disc length: 2476 seconds
#
# Revision: 0
# Processed by: cddbd v1.5PL3 Copyright (c) Steve Scherf et al.
# Submitted via: CDex 1.50
#
DISCID=7809aa0b
DTITLE=すかんち - 恋のウルトラ大作戦
DYEAR=1990
DGENRE=Rock
TTITLE0=HONEY
TTITLE1=君は窓辺のパントマイム
TTITLE2=恋のT・K・O
TTITLE3=魅惑のYoung Love
TTITLE4=ウルトラ　ロケットマン
TTITLE5=OK! Baby Joe
TTITLE6=炎のロックマシーン
TTITLE7=涙の転校生
TTITLE8=秘密の24時
TTITLE9=恋のショック療法
TTITLE10=スローソンの小屋
EXTD=YEAR: 1990
EXTT0=
EXTT1=
EXTT2=
EXTT3=
EXTT4=
EXTT5=
EXTT6=
EXTT7=
EXTT8=
EXTT9=
EXTT10=
PLAYORDER=
